<?xml version="1.0" encoding="utf-8"?>
<!-- Generator: Adobe Illustrator 25.2.0, SVG Export Plug-In . SVG Version: 6.00 Build 0)  -->
<svg version="1.1" baseProfile="tiny" id="Vrstva_1"
	 xmlns="http://www.w3.org/2000/svg" xmlns:xlink="http://www.w3.org/1999/xlink" x="0px" y="0px" viewBox="0 0 249.43 81.75"
	 overflow="visible" xml:space="preserve">
<rect x="0" y="0" fill="#44D9E6" width="153.75" height="81.75"/>
<g>
	<g>
	</g>
	<g>
	</g>
	<g>
	</g>
	<g>
	</g>
	<g>
	</g>
</g>
<rect x="-43.57" y="-143.47" fill="none" width="375" height="375"/>
<g>
	<path d="M51.12,13.65l-8.49,25.7l9.3,31.22H36.64l-5.99-24.4v24.4h-14.8V13.65h14.8v22.11l6.59-22.11H51.12z"/>
	<path d="M81.97,13.65v45.53h9v11.39h-23.8V13.65H81.97z"/>
	<path d="M122.05,13.65v56.92h-14.8V13.65H122.05z"/>
</g>
<g>
</g>
<g>
	<rect x="589.43" y="16.57" fill="none" width="51" height="1"/>
</g>
<g>
	<path d="M205.32,13.65v56.92h-12.94l-0.02-38.43l-5.15,38.43h-9.18l-5.43-37.55l-0.02,37.55h-12.94V13.65h19.15
		c0.57,3.42,1.15,7.46,1.76,12.1l2.1,14.48l3.4-26.58H205.32z"/>
	<path d="M243.8,46.98c0,5.72-0.13,9.77-0.4,12.15s-1.11,4.55-2.53,6.52s-3.33,3.48-5.75,4.54s-5.23,1.58-8.44,1.58
		c-3.05,0-5.78-0.5-8.21-1.49s-4.38-2.49-5.85-4.48s-2.36-4.16-2.64-6.5s-0.42-6.45-0.42-12.3v-9.74c0-5.72,0.13-9.77,0.4-12.15
		c0.27-2.38,1.11-4.55,2.53-6.52s3.33-3.48,5.75-4.54s5.23-1.58,8.44-1.58c3.05,0,5.78,0.5,8.21,1.49c2.43,1,4.38,2.49,5.85,4.48
		c1.48,1.99,2.36,4.16,2.64,6.5c0.28,2.34,0.42,6.45,0.42,12.3V46.98z M229,28.27c0-2.65-0.15-4.34-0.44-5.08s-0.9-1.11-1.81-1.11
		c-0.77,0-1.37,0.3-1.78,0.9s-0.62,2.36-0.62,5.29v26.58c0,3.3,0.13,5.34,0.4,6.12s0.9,1.16,1.88,1.16c1.01,0,1.65-0.45,1.93-1.34
		s0.42-3.01,0.42-6.36V28.27z"/>
</g>
</svg>
